<svg width="24" height="24" viewBox="0 0 24 24" fill="none" xmlns="http://www.w3.org/2000/svg">
<g clip-path="url(#clip0_1048_3823)">
<path d="M21.6 9.59999V3.99999C21.6 3.57565 21.4315 3.16868 21.1314 2.86862C20.8314 2.56856 20.4244 2.39999 20 2.39999H2.40005C1.9757 2.39999 1.56874 2.56856 1.26868 2.86862C0.96862 3.16868 0.800049 3.57565 0.800049 3.99999V20C0.800049 20.4243 0.96862 20.8313 1.26868 21.1314C1.56874 21.4314 1.9757 21.6 2.40005 21.6H20C20.4244 21.6 20.8314 21.4314 21.1314 21.1314C21.4315 20.8313 21.6 20.4243 21.6 20V14.4M23.088 8.79999H15.2C14.3514 8.79999 13.5374 9.13714 12.9373 9.73725C12.3372 10.3374 12 11.1513 12 12C12 12.8487 12.3372 13.6626 12.9373 14.2627C13.5374 14.8629 14.3514 15.2 15.2 15.2H23.088C23.1178 15.2 23.1462 15.1882 23.1672 15.1672C23.1882 15.1462 23.2 15.1177 23.2 15.088V8.91199C23.2 8.88229 23.1882 8.8538 23.1672 8.8328C23.1462 8.81179 23.1178 8.79999 23.088 8.79999Z" stroke="#A9AD9B" stroke-width="2"/>
</g>
<defs>
<clipPath id="clip0_1048_3823">
<rect width="24" height="24" fill="white"/>
</clipPath>
</defs>
</svg>
