<svg width="24" height="25" viewBox="0 0 24 25" fill="none" xmlns="http://www.w3.org/2000/svg">
<path d="M15.5 6.51758V17.0176C15.5 19.2276 13.71 21.0176 11.5 21.0176C9.29 21.0176 7.5 19.2276 7.5 17.0176V6.51758C7.5 5.13758 8.62 4.01758 10 4.01758C11.38 4.01758 12.5 5.13758 12.5 6.51758V16.0176C12.5 16.5676 12.05 17.0176 11.5 17.0176C10.95 17.0176 10.5 16.5676 10.5 16.0176V6.51758H9V16.0176C9 17.3976 10.12 18.5176 11.5 18.5176C12.88 18.5176 14 17.3976 14 16.0176V6.51758C14 4.30758 12.21 2.51758 10 2.51758C7.79 2.51758 6 4.30758 6 6.51758V17.0176C6 20.0576 8.46 22.5176 11.5 22.5176C14.54 22.5176 17 20.0576 17 17.0176V6.51758H15.5Z" fill="#6E7191"/>
</svg>
