<svg width="83" height="82" viewBox="0 0 83 82" fill="none" xmlns="http://www.w3.org/2000/svg">
<g clip-path="url(#clip0_309_6146)">
<path d="M53.5799 38.85C53.5301 37.5817 52.9548 36.5745 52.2949 36.6004C51.635 36.6263 51.1404 37.6754 51.1902 38.9437C51.2399 40.2121 51.8152 41.2192 52.4751 41.1934C53.135 41.1675 53.6296 40.1183 53.5799 38.85Z" fill="#F7FBEA"/>
<path d="M55.5671 35.4957C55.0077 35.517 54.5879 36.4072 54.6302 37.4819C54.6725 38.5572 55.1603 39.4113 55.72 39.3885C56.2798 39.3676 56.6996 38.4777 56.6565 37.4027C56.615 36.327 56.1268 35.4722 55.5671 35.4957V35.4957ZM33.0072 25.1759L31.4983 25.774C32.2746 25.7697 34.5342 25.3394 37.4822 25.6822C40.431 26.0257 43.4965 27.9652 43.4965 27.9652L45.3468 26.8881C45.3468 26.8881 43.6896 25.4525 39.6876 24.9008C35.0426 24.26 33.0072 25.1759 33.0072 25.1759Z" fill="#F7FBEA"/>
<path d="M41.5348 0C18.8961 0 0.543701 18.3524 0.543701 40.9911C0.543701 63.6299 18.8961 81.9823 41.5348 81.9823C64.1736 81.9823 82.526 63.6299 82.526 40.9911C82.526 18.3524 64.1736 0 41.5348 0ZM60.4542 49.8428C58.7888 52.4412 56.313 53.8301 54.8749 52.9952C52.6786 55.365 50.2773 56.8334 47.842 57.6517C47.0429 59.3309 45.3684 61.5467 43.1649 61.5869C41.1053 61.6245 39.199 59.4524 38.1854 58.0513C35.8246 57.5515 33.696 56.7119 32.0131 55.8448C31.0403 55.3476 30.0964 54.7958 29.1859 54.192C28.2334 54.2998 27.1201 54.2951 26.4371 53.8572C25.6622 53.3611 25.4091 52.0135 25.3368 50.9258C22.8837 48.211 21.1922 44.6041 21.1922 39.6688C21.1922 30.8898 26.9892 27.3574 26.9892 27.3574C26.9925 27.3542 26.9968 27.352 27.0001 27.3502C27.1516 26.1609 27.6234 24.4239 29.0521 23.4078C30.617 22.2952 32.766 23.3355 34.0044 24.1339C37.668 23.1869 42.104 23.0878 46.9283 25.0133C48.0915 24.0381 50.3431 22.4496 52.8822 22.2218C56.5813 21.8909 58.1274 24.3212 58.348 25.8116C58.5122 26.9167 57.4599 30.9408 56.9071 32.9436C58.66 35.695 59.5676 38.7963 59.5206 41.9334L60.933 43.4134C62.3598 44.3282 62.1447 47.2061 60.4542 49.8428V49.8428Z" fill="#F7FBEA"/>
<path d="M60.0497 45.2431C59.639 45.1997 59.2329 45.8636 59.1421 46.726C59.0517 47.5898 59.3114 48.3238 59.721 48.3661C60.1314 48.4084 60.5382 47.7453 60.6279 46.8822C60.719 46.0198 60.4598 45.285 60.0497 45.2431V45.2431ZM57.6871 47.2344C57.217 47.183 56.7549 47.9098 56.6555 48.8557C56.5561 49.8009 56.8565 50.6069 57.3259 50.6557C57.7977 50.7056 58.2588 49.9795 58.3578 49.034C58.4573 48.0895 58.1568 47.2828 57.6871 47.2344V47.2344Z" fill="#F7FBEA"/>
</g>
<defs>
<clipPath id="clip0_309_6146">
<rect width="82" height="82" fill="white" transform="translate(0.5)"/>
</clipPath>
</defs>
</svg>
